<svg width="24" height="25" viewBox="0 0 24 25" fill="none" xmlns="http://www.w3.org/2000/svg">
<path d="M12.75 18.5C12.75 18.9142 12.4142 19.25 12 19.25C11.5858 19.25 11.25 18.9142 11.25 18.5V8.4281L7.05287 13.0068C6.77298 13.3121 6.29855 13.3328 5.99321 13.0529C5.68787 12.773 5.66724 12.2985 5.94714 11.9932L11.4453 5.99518C11.4587 5.98048 11.4727 5.9663 11.4872 5.9527C11.6213 5.82698 11.8017 5.75 12 5.75C12.1983 5.75 12.3787 5.82698 12.5128 5.9527C12.5273 5.9663 12.5413 5.98048 12.5547 5.99518L18.0529 11.9932C18.3328 12.2985 18.3121 12.773 18.0068 13.0529C17.7015 13.3328 17.227 13.3121 16.9471 13.0068L12.75 8.4281V18.5Z" fill="#97ADDC"/>
</svg>
