<svg width="24" height="25" viewBox="0 0 24 25" fill="none" xmlns="http://www.w3.org/2000/svg">
<path d="M12.75 6.5C12.75 6.08579 12.4142 5.75 12 5.75C11.5858 5.75 11.25 6.08579 11.25 6.5V16.5719L7.05287 11.9932C6.77298 11.6879 6.29855 11.6672 5.99321 11.9471C5.68787 12.227 5.66724 12.7015 5.94714 13.0068L11.4453 19.0048C11.4587 19.0195 11.4727 19.0337 11.4872 19.0473C11.6213 19.173 11.8017 19.25 12 19.25C12.1983 19.25 12.3787 19.173 12.5128 19.0473C12.5273 19.0337 12.5413 19.0195 12.5547 19.0048L18.0529 13.0068C18.3328 12.7015 18.3121 12.227 18.0068 11.9471C17.7015 11.6672 17.227 11.6879 16.9471 11.9932L12.75 16.5719V6.5Z" fill="#97ADDC"/>
</svg>
