<svg width="42" height="42" viewBox="0 0 42 42" fill="none" xmlns="http://www.w3.org/2000/svg">
<path fill-rule="evenodd" clip-rule="evenodd" d="M27.5625 22.3125C27.5625 25.9369 24.6244 28.875 21 28.875C17.3756 28.875 14.4375 25.9369 14.4375 22.3125C14.4375 18.6881 17.3756 15.75 21 15.75C24.6244 15.75 27.5625 18.6881 27.5625 22.3125ZM24.9375 22.3125C24.9375 24.4871 23.1746 26.25 21 26.25C18.8254 26.25 17.0625 24.4871 17.0625 22.3125C17.0625 20.1379 18.8254 18.375 21 18.375C23.1746 18.375 24.9375 20.1379 24.9375 22.3125Z" fill="#2F384C"/>
<path fill-rule="evenodd" clip-rule="evenodd" d="M9.1875 9.1875H11.8125L13.2686 7.00337C13.9989 5.90796 15.2283 5.25 16.5448 5.25H25.4552C26.7717 5.25 28.0011 5.90796 28.7314 7.00337L30.1875 9.1875H32.8125C36.4369 9.1875 39.375 12.1256 39.375 15.75V30.1875C39.375 33.8119 36.4369 36.75 32.8125 36.75H9.1875C5.56313 36.75 2.625 33.8119 2.625 30.1875V15.75C2.625 12.1256 5.56313 9.1875 9.1875 9.1875ZM9.1875 11.8125H13.2174L15.4527 8.45946C15.6961 8.09432 16.1059 7.875 16.5448 7.875H25.4552C25.8941 7.875 26.3039 8.09432 26.5473 8.45946L28.7826 11.8125H32.8125C34.9871 11.8125 36.75 13.5754 36.75 15.75V30.1875C36.75 32.3621 34.9871 34.125 32.8125 34.125H9.1875C7.01288 34.125 5.25 32.3621 5.25 30.1875V15.75C5.25 13.5754 7.01288 11.8125 9.1875 11.8125Z" fill="#2F384C"/>
</svg>
