<svg width="24" height="24" viewBox="0 0 24 24" fill="none" xmlns="http://www.w3.org/2000/svg">
<path d="M13.08 20.49C11.6861 20.4801 10.3147 20.1372 9.08004 19.49C8.90829 19.3965 8.7792 19.2404 8.7196 19.0542C8.66 18.8679 8.67448 18.6659 8.76004 18.49C8.85169 18.3164 9.00774 18.1857 9.19471 18.1258C9.38167 18.066 9.58464 18.0819 9.76004 18.17C11.2009 18.9109 12.8467 19.1536 14.44 18.86C15.7143 18.6085 16.8977 18.0193 17.8664 17.154C18.835 16.2887 19.5534 15.179 19.9465 13.941C20.3395 12.703 20.3927 11.3822 20.1006 10.1166C19.8085 8.85096 19.1817 7.68708 18.2858 6.7466C17.3899 5.80613 16.2578 5.12361 15.0079 4.7704C13.7579 4.41719 12.4361 4.40627 11.1805 4.73877C9.92484 5.07127 8.78162 5.73498 7.87031 6.66051C6.95899 7.58605 6.31306 8.73941 6.00004 10C5.54986 11.8706 5.85527 13.8432 6.85004 15.49C6.94406 15.6571 6.97055 15.8538 6.92405 16.0398C6.87756 16.2257 6.76162 16.3869 6.60004 16.49C6.43298 16.584 6.23626 16.6105 6.05029 16.564C5.86431 16.5175 5.7032 16.4016 5.60004 16.24C4.86971 15.0325 4.44301 13.6659 4.35651 12.2573C4.27 10.8487 4.52626 9.44015 5.10334 8.1523C5.68041 6.86445 6.56109 5.73569 7.66993 4.86274C8.77877 3.98979 10.0827 3.39867 11.47 3.14002C13.7522 2.71434 16.11 3.2127 18.0248 4.52546C19.9395 5.83821 21.2544 7.85783 21.68 10.14C22.1057 12.4222 21.6074 14.78 20.2946 16.6948C18.9818 18.6095 16.9622 19.9243 14.68 20.35C14.1515 20.4412 13.6163 20.4881 13.08 20.49Z" fill="#97ADDC"/>
<path d="M5.33001 21C5.09027 21.0058 4.85298 20.9507 4.64026 20.84C4.42755 20.7292 4.24635 20.5664 4.11356 20.3667C3.98076 20.167 3.90071 19.937 3.88085 19.698C3.861 19.459 3.90199 19.2189 4.00001 19L5.53001 15.58C5.57004 15.4888 5.62782 15.4065 5.69999 15.3379C5.77215 15.2693 5.85726 15.2158 5.95035 15.1804C6.04343 15.145 6.14263 15.1285 6.24216 15.1319C6.34168 15.1353 6.43953 15.1584 6.53001 15.2C6.71236 15.283 6.85459 15.4346 6.92575 15.6218C6.99691 15.8091 6.99126 16.0169 6.91001 16.2L5.48001 19.45L9.15001 18.14C9.24441 18.0986 9.34633 18.0771 9.44942 18.0768C9.5525 18.0765 9.65454 18.0975 9.74916 18.1384C9.84377 18.1793 9.92894 18.2393 9.99933 18.3146C10.0697 18.39 10.1238 18.479 10.1583 18.5761C10.1927 18.6733 10.2068 18.7765 10.1996 18.8793C10.1924 18.9822 10.164 19.0824 10.1163 19.1738C10.0686 19.2652 10.0026 19.3458 9.92236 19.4105C9.84213 19.4752 9.74942 19.5227 9.65001 19.55L5.80001 20.92C5.64956 20.9752 5.49025 21.0023 5.33001 21Z" fill="#97ADDC"/>
</svg>
