<svg width="25" height="25" viewBox="0 0 25 25" fill="none" xmlns="http://www.w3.org/2000/svg">
<path fill-rule="evenodd" clip-rule="evenodd" d="M19.5327 9.43756C19.8256 9.14466 19.8256 8.66979 19.5327 8.3769C19.2398 8.084 18.765 8.084 18.4721 8.3769L11.0836 15.7654L8.60241 12.4572C8.35388 12.1259 7.88378 12.0587 7.55241 12.3072C7.22104 12.5558 7.15388 13.0259 7.40241 13.3572L10.4024 17.3572C10.5329 17.5312 10.7324 17.6399 10.9492 17.6553C11.1661 17.6708 11.379 17.5913 11.5327 17.4376L19.5327 9.43756ZM3.55236 12.3072C3.88373 12.0587 4.35384 12.1259 4.60236 12.4572L7.60236 16.4572C7.85089 16.7886 7.78373 17.2587 7.45236 17.5072C7.12099 17.7558 6.65089 17.6886 6.40236 17.3572L3.40236 13.3572C3.15384 13.0259 3.22099 12.5558 3.55236 12.3072ZM15.5327 9.43756C15.8256 9.14466 15.8256 8.66979 15.5327 8.3769C15.2398 8.084 14.7649 8.084 14.472 8.3769L10.972 11.8769C10.6791 12.1698 10.6791 12.6447 10.972 12.9376C11.2649 13.2304 11.7398 13.2304 12.0327 12.9376L15.5327 9.43756Z" fill="#2F384C"/>
</svg>
