<svg width="24" height="25" viewBox="0 0 24 25" fill="none" xmlns="http://www.w3.org/2000/svg">
<path d="M10.1787 9.39075C10.5929 9.39075 10.9287 9.72653 10.9287 10.1407V17.1407C10.9287 17.555 10.5929 17.8907 10.1787 17.8907C9.7645 17.8907 9.42871 17.555 9.42871 17.1407V10.1407C9.42871 9.72653 9.7645 9.39075 10.1787 9.39075Z" fill="#97ADDC"/>
<path d="M14.9287 10.1407C14.9287 9.72653 14.5929 9.39075 14.1787 9.39075C13.7645 9.39075 13.4287 9.72653 13.4287 10.1407V17.1407C13.4287 17.555 13.7645 17.8907 14.1787 17.8907C14.5929 17.8907 14.9287 17.555 14.9287 17.1407V10.1407Z" fill="#97ADDC"/>
<path fill-rule="evenodd" clip-rule="evenodd" d="M7.42871 5.39075V5.14075C7.42871 3.62196 8.65993 2.39075 10.1787 2.39075H14.1787C15.6975 2.39075 16.9287 3.62196 16.9287 5.14075V5.39075H20.1787C20.5929 5.39075 20.9287 5.72653 20.9287 6.14075C20.9287 6.55496 20.5929 6.89075 20.1787 6.89075H18.9287V19.1407C18.9287 20.6595 17.6975 21.8907 16.1787 21.8907H8.17871C6.65993 21.8907 5.42871 20.6595 5.42871 19.1407V6.89075H4.17871C3.7645 6.89075 3.42871 6.55496 3.42871 6.14075C3.42871 5.72653 3.7645 5.39075 4.17871 5.39075H7.42871ZM8.92871 5.14075C8.92871 4.45039 9.48836 3.89075 10.1787 3.89075H14.1787C14.8691 3.89075 15.4287 4.45039 15.4287 5.14075V5.39075H8.92871V5.14075ZM6.92871 6.89075V19.1407C6.92871 19.8311 7.48836 20.3907 8.17871 20.3907H16.1787C16.8691 20.3907 17.4287 19.8311 17.4287 19.1407V6.89075H6.92871Z" fill="#97ADDC"/>
</svg>
