<svg width="25" height="24" viewBox="0 0 25 24" fill="none" xmlns="http://www.w3.org/2000/svg">
<path fill-rule="evenodd" clip-rule="evenodd" d="M15.2626 4.17663C15.946 3.49321 17.054 3.49321 17.7374 4.17663L20.3232 6.76241C21.0066 7.44583 21.0066 8.55387 20.3232 9.23729L17.0303 12.5302L9.32322 20.2373C8.99503 20.5655 8.54992 20.7498 8.08579 20.7498H5.5C4.5335 20.7498 3.75 19.9663 3.75 18.9998V16.4141C3.75 15.9499 3.93437 15.5048 4.26256 15.1766L15.2626 4.17663ZM16.3232 5.23729C16.4209 5.13965 16.5791 5.13965 16.6768 5.23729L19.2626 7.82307C19.3602 7.9207 19.3602 8.07899 19.2626 8.17663L16.5 10.9392L13.5607 7.99985L16.3232 5.23729ZM15.4393 11.9998L8.26256 19.1766C8.21568 19.2235 8.15209 19.2498 8.08579 19.2498H5.5C5.36193 19.2498 5.25 19.1379 5.25 18.9998V16.4141C5.25 16.3478 5.27634 16.2842 5.32322 16.2373L12.5 9.06051L15.4393 11.9998Z" fill="#97ADDC"/>
</svg>
