<svg width="24" height="24" viewBox="0 0 24 24" fill="none" xmlns="http://www.w3.org/2000/svg">
<path fill-rule="evenodd" clip-rule="evenodd" d="M5.75 5C5.75 4.30964 6.30964 3.75 7 3.75H12.25V7C12.25 8.51878 13.4812 9.75 15 9.75H18.25V19C18.25 19.6904 17.6904 20.25 17 20.25H10C9.58579 20.25 9.25 20.5858 9.25 21C9.25 21.4142 9.58579 21.75 10 21.75H17C18.5188 21.75 19.75 20.5188 19.75 19V8.82843C19.75 8.09908 19.4603 7.39961 18.9445 6.88388L15.1161 3.05546C14.6004 2.53973 13.9009 2.25 13.1716 2.25H7C5.48122 2.25 4.25 3.48122 4.25 5V12C4.25 12.4142 4.58579 12.75 5 12.75C5.41421 12.75 5.75 12.4142 5.75 12V5ZM13.75 7V3.89188C13.8616 3.95014 13.9648 4.02544 14.0555 4.11612L17.8839 7.94454C17.9746 8.03522 18.0499 8.13838 18.1081 8.25H15C14.3096 8.25 13.75 7.69036 13.75 7Z" fill="#97ADDC"/>
<path fill-rule="evenodd" clip-rule="evenodd" d="M10.5303 11.4697C10.2374 11.1768 9.76256 11.1768 9.46967 11.4697L2.46967 18.4697C2.32902 18.6103 2.25 18.8011 2.25 19V21C2.25 21.4142 2.58579 21.75 3 21.75H5C5.19891 21.75 5.38968 21.671 5.53033 21.5303L12.5303 14.5303C12.8232 14.2374 12.8232 13.7626 12.5303 13.4697L10.5303 11.4697ZM10 14.9393L9.06066 14L10 13.0607L10.9393 14L10 14.9393ZM8 15.0607L8.93934 16L4.68934 20.25H3.75V19.3107L8 15.0607Z" fill="#97ADDC"/>
</svg>
