<svg width="24" height="24" viewBox="0 0 24 24" fill="none" xmlns="http://www.w3.org/2000/svg">
<path fill-rule="evenodd" clip-rule="evenodd" d="M4.03021 2.96967C3.73731 2.67678 3.26244 2.67678 2.96955 2.96967C2.67665 3.26256 2.67665 3.73744 2.96955 4.03033L6.12616 7.18694C4.52001 8.22595 3.23137 9.47186 2.41526 10.3554C1.54926 11.293 1.54895 12.7062 2.4151 13.644C3.24354 14.5409 4.55425 15.806 6.1862 16.8513C7.81451 17.8942 9.81239 18.7498 11.9999 18.7498C13.6426 18.7498 15.1776 18.2671 16.5267 17.5875L19.9695 21.0303C20.2624 21.3232 20.7373 21.3232 21.0302 21.0303C21.3231 20.7374 21.3231 20.2626 21.0302 19.9697L4.03021 2.96967ZM15.4017 16.4624L13.3408 14.4015C13.1375 14.5152 12.9182 14.604 12.6868 14.6635C12.4665 14.7202 12.2361 14.7502 11.9999 14.7502C10.4811 14.7502 9.24988 13.519 9.24988 12.0002C9.24988 11.702 9.2976 11.4135 9.3864 11.1428C9.44186 10.9736 9.51318 10.8119 9.59852 10.6593L7.21357 8.27435C5.62969 9.24799 4.33545 10.4873 3.51714 11.3732C3.1818 11.7362 3.18182 12.2633 3.51699 12.6262C4.29515 13.4687 5.50838 14.6359 6.9952 15.5881C8.48567 16.5427 10.2014 17.2498 11.9999 17.2498C13.1819 17.2498 14.3289 16.9445 15.4017 16.4624Z" fill="#97ADDC"/>
<path d="M11.9999 6.75C11.6956 6.75 11.3938 6.7702 11.095 6.80842C10.6842 6.86098 10.3085 6.57051 10.2559 6.15965C10.2034 5.74878 10.4938 5.3731 10.9047 5.32054C11.2637 5.27462 11.6291 5.25 11.9999 5.25C14.1874 5.25 16.1853 6.10562 17.8136 7.1485C19.4455 8.19373 20.7562 9.4589 21.5847 10.3558C22.451 11.2937 22.4501 12.7073 21.5842 13.6447C21.0735 14.1975 20.3829 14.8867 19.5496 15.5774C19.2307 15.8418 18.7579 15.7975 18.4935 15.4786C18.2292 15.1597 18.2734 14.6869 18.5923 14.4226C19.3635 13.7833 20.006 13.1426 20.4824 12.6269C20.8178 12.2637 20.8178 11.7363 20.4828 11.3736C19.7046 10.5311 18.4914 9.36391 17.0046 8.41164C15.5141 7.45703 13.7983 6.75 11.9999 6.75Z" fill="#97ADDC"/>
</svg>
