<svg width="25" height="24" viewBox="0 0 25 24" fill="none" xmlns="http://www.w3.org/2000/svg">
<path fill-rule="evenodd" clip-rule="evenodd" d="M8.75 7.50007V5.25005C8.75 4.2091 9.2861 3.42871 10.0215 2.93845C10.7346 2.46302 11.6388 2.24999 12.5 2.25C13.3613 2.25001 14.2654 2.46307 14.9785 2.93851C15.7139 3.42876 16.25 4.20913 16.25 5.25005V7.50007H19.5C21.0188 7.50007 22.25 8.73129 22.25 10.2501V18.2501C22.25 19.7689 21.0188 21.0001 19.5 21.0001H5.5C3.98122 21.0001 2.75 19.7689 2.75 18.2501V10.2501C2.75 8.73129 3.98122 7.50007 5.5 7.50007H8.75ZM10.25 5.25005C10.25 4.79093 10.4639 4.44628 10.8535 4.18652C11.2654 3.91194 11.8612 3.74999 12.5 3.75C13.1387 3.75001 13.7346 3.91198 14.1465 4.18657C14.5361 4.44634 14.75 4.79099 14.75 5.25005V7.50007H10.25V5.25005ZM4.25 10.2501C4.25 9.55972 4.80964 9.00007 5.5 9.00007H19.5C20.1904 9.00007 20.75 9.55972 20.75 10.2501V18.2501C20.75 18.9404 20.1904 19.5001 19.5 19.5001H5.5C4.80964 19.5001 4.25 18.9404 4.25 18.2501V10.2501Z" fill="#97ADDC"/>
</svg>
