<svg width="24" height="25" viewBox="0 0 24 25" fill="none" xmlns="http://www.w3.org/2000/svg">
<path d="M10 3.75C8.48122 3.75 7.25 4.98122 7.25 6.5V8.5C7.25 8.91421 7.58579 9.25 8 9.25C8.41421 9.25 8.75 8.91421 8.75 8.5V6.5C8.75 5.80964 9.30964 5.25 10 5.25H18C18.6904 5.25 19.25 5.80964 19.25 6.5V18.5C19.25 19.1904 18.6904 19.75 18 19.75H10C9.30964 19.75 8.75 19.1904 8.75 18.5V16.5C8.75 16.0858 8.41421 15.75 8 15.75C7.58579 15.75 7.25 16.0858 7.25 16.5V18.5C7.25 20.0188 8.48122 21.25 10 21.25H18C19.5188 21.25 20.75 20.0188 20.75 18.5V6.5C20.75 4.98122 19.5188 3.75 18 3.75H10Z" fill="#97ADDC"/>
<path d="M12.5303 7.96967C12.2374 7.67678 11.7626 7.67678 11.4697 7.96967C11.1768 8.26256 11.1768 8.73744 11.4697 9.03033L14.1893 11.75H3C2.58579 11.75 2.25 12.0858 2.25 12.5C2.25 12.9142 2.58579 13.25 3 13.25H14.1893L11.4697 15.9697C11.1768 16.2626 11.1768 16.7374 11.4697 17.0303C11.7626 17.3232 12.2374 17.3232 12.5303 17.0303L16.5303 13.0303C16.8232 12.7374 16.8232 12.2626 16.5303 11.9697L12.5303 7.96967Z" fill="#97ADDC"/>
</svg>
