<svg width="24" height="25" viewBox="0 0 24 25" fill="none" xmlns="http://www.w3.org/2000/svg">
<path d="M20.75 16.5C20.75 16.9142 20.4142 17.25 20 17.25H12C11.5858 17.25 11.25 16.9142 11.25 16.5C11.25 16.0858 11.5858 15.75 12 15.75H20C20.4142 15.75 20.75 16.0858 20.75 16.5Z" fill="#97ADDC"/>
<path d="M20.75 12.5C20.75 12.9142 20.4142 13.25 20 13.25H4C3.58579 13.25 3.25 12.9142 3.25 12.5C3.25 12.0858 3.58579 11.75 4 11.75H20C20.4142 11.75 20.75 12.0858 20.75 12.5Z" fill="#97ADDC"/>
<path d="M20 9.25C20.4142 9.25 20.75 8.91421 20.75 8.5C20.75 8.08579 20.4142 7.75 20 7.75H4C3.58579 7.75 3.25 8.08579 3.25 8.5C3.25 8.91421 3.58579 9.25 4 9.25H20Z" fill="#97ADDC"/>
</svg>
