<svg width="28" height="25" viewBox="0 0 28 25" fill="none" xmlns="http://www.w3.org/2000/svg">
<path d="M13.5799 2.00004C15.326 2.00269 16.9996 2.69816 18.2333 3.93374C19.467 5.16932 20.1599 6.844 20.1599 8.59004L20.1599 15.09C20.1599 15.9541 19.9897 16.8098 19.659 17.6081C19.3284 18.4064 18.8437 19.1318 18.2327 19.7428C17.6217 20.3538 16.8963 20.8385 16.098 21.1692C15.2996 21.4998 14.444 21.67 13.5799 21.67C12.7158 21.67 11.8602 21.4998 11.0619 21.1692C10.2635 20.8385 9.53816 20.3538 8.92715 19.7428C8.31614 19.1318 7.83146 18.4064 7.50078 17.6081C7.17011 16.8098 6.99991 15.9541 6.99991 15.09L6.99991 8.59004C6.99991 6.844 7.69284 5.16932 8.92654 3.93374C10.1602 2.69816 11.8339 2.00269 13.5799 2.00004ZM13.5799 20.17C14.9264 20.1674 16.217 19.6313 17.1691 18.6792C18.1212 17.7271 18.6573 16.4365 18.6599 15.09L18.6599 8.59004C18.6599 7.92293 18.5285 7.26235 18.2732 6.64601C18.0179 6.02968 17.6437 5.46966 17.172 4.99794C16.7003 4.52622 16.1403 4.15203 15.5239 3.89674C14.9076 3.64144 14.247 3.51004 13.5799 3.51004C12.9128 3.51004 12.2522 3.64144 11.6359 3.89674C11.0195 4.15203 10.4595 4.52622 9.98781 4.99794C9.51609 5.46966 9.1419 6.02968 8.88661 6.64601C8.63131 7.26234 8.49991 7.92293 8.49991 8.59004L8.49991 15.09C8.50256 16.4365 9.03862 17.7271 9.99073 18.6792C10.9428 19.6313 12.2334 20.1674 13.5799 20.17Z" fill="#97ADDC"/>
<path d="M13.5798 12.28C13.7787 12.28 13.9695 12.359 14.1102 12.4997C14.2508 12.6404 14.3298 12.8311 14.3298 13.03L14.3298 15.78C14.3298 15.8785 14.3104 15.976 14.2727 16.067C14.2351 16.158 14.1798 16.2407 14.1102 16.3104C14.0405 16.38 13.9578 16.4352 13.8668 16.4729C13.7759 16.5106 13.6783 16.53 13.5798 16.53C13.4813 16.53 13.3838 16.5106 13.2928 16.4729C13.2018 16.4352 13.1191 16.38 13.0495 16.3104C12.9799 16.2407 12.9246 16.158 12.8869 16.067C12.8492 15.976 12.8298 15.8785 12.8298 15.78L12.8298 13C12.8376 12.8064 12.92 12.6232 13.0598 12.489C13.1997 12.3548 13.386 12.2799 13.5798 12.28Z" fill="#97ADDC"/>
</svg>
