<svg width="24" height="24" viewBox="0 0 24 24" fill="none" xmlns="http://www.w3.org/2000/svg">
<path d="M19.6948 19.5H19.6048C19.4083 19.4749 19.2294 19.3742 19.1061 19.2191C18.9828 19.0641 18.9249 18.8671 18.9448 18.67C18.9854 18.3382 19.0054 18.0043 19.0048 17.67V13.42C19.0209 11.3727 18.2514 9.3971 16.8548 7.9C16.2059 7.19202 15.4182 6.62514 14.5409 6.23462C13.6635 5.84409 12.7151 5.63829 11.7548 5.63C9.76263 5.70817 7.88226 6.57112 6.524 8.03054C5.16575 9.48996 4.43987 11.4274 4.50478 13.42V17.68C4.50413 18.0143 4.52417 18.3482 4.56478 18.68C4.57529 18.7785 4.56629 18.8781 4.53831 18.9731C4.51032 19.0681 4.4639 19.1567 4.40168 19.2338C4.33947 19.3108 4.26268 19.3749 4.1757 19.4223C4.08873 19.4697 3.99327 19.4995 3.89478 19.51C3.79629 19.5205 3.69669 19.5115 3.60168 19.4835C3.50667 19.4555 3.41809 19.4091 3.34102 19.3469C3.26395 19.2847 3.19988 19.2079 3.15249 19.1209C3.10509 19.034 3.07529 18.9385 3.06478 18.84C3.02459 18.458 3.00456 18.0741 3.00478 17.69V13.42C2.96613 12.2347 3.16212 11.0534 3.58149 9.94409C4.00087 8.83477 4.63535 7.81927 5.44848 6.95596C6.2616 6.09265 7.23734 5.39857 8.31959 4.91359C9.40184 4.42862 10.5693 4.16232 11.7548 4.13C12.9221 4.13526 14.0757 4.38234 15.1428 4.85564C16.2099 5.32895 17.1673 6.01823 17.9548 6.88C19.6059 8.65615 20.5179 10.995 20.5048 13.42V17.68C20.5067 18.0645 20.4833 18.4486 20.4348 18.83C20.4173 19.0139 20.3317 19.1846 20.1948 19.3086C20.0578 19.4326 19.8795 19.5008 19.6948 19.5Z" fill="#97ADDC"/>
<path d="M19.6947 19.5H3.8147C3.61578 19.5 3.42502 19.421 3.28437 19.2803C3.14372 19.1397 3.0647 18.9489 3.0647 18.75C3.0647 18.5511 3.14372 18.3603 3.28437 18.2197C3.42502 18.079 3.61578 18 3.8147 18H19.6947C19.8936 18 20.0844 18.079 20.225 18.2197C20.3657 18.3603 20.4447 18.5511 20.4447 18.75C20.4447 18.9489 20.3657 19.1397 20.225 19.2803C20.0844 19.421 19.8936 19.5 19.6947 19.5Z" fill="#97ADDC"/>
<path d="M11.7549 5.63C11.556 5.63 11.3652 5.55098 11.2246 5.41033C11.0839 5.26968 11.0049 5.07891 11.0049 4.88V2.75C11.0049 2.55109 11.0839 2.36032 11.2246 2.21967C11.3652 2.07902 11.556 2 11.7549 2C11.9538 2 12.1446 2.07902 12.2852 2.21967C12.4259 2.36032 12.5049 2.55109 12.5049 2.75V4.88C12.5049 5.07891 12.4259 5.26968 12.2852 5.41033C12.1446 5.55098 11.9538 5.63 11.7549 5.63Z" fill="#97ADDC"/>
<path d="M11.7549 22.5C10.7603 22.5 9.80649 22.1049 9.10323 21.4017C8.39997 20.6984 8.00488 19.7446 8.00488 18.75C8.00488 18.5511 8.0839 18.3603 8.22455 18.2197C8.36521 18.079 8.55597 18 8.75488 18C8.9538 18 9.14456 18.079 9.28521 18.2197C9.42586 18.3603 9.50488 18.5511 9.50488 18.75C9.50488 19.3467 9.74194 19.919 10.1639 20.341C10.5858 20.7629 11.1581 21 11.7549 21C12.3516 21 12.9239 20.7629 13.3459 20.341C13.7678 19.919 14.0049 19.3467 14.0049 18.75C14.0049 18.5511 14.0839 18.3603 14.2246 18.2197C14.3652 18.079 14.556 18 14.7549 18C14.9538 18 15.1446 18.079 15.2852 18.2197C15.4259 18.3603 15.5049 18.5511 15.5049 18.75C15.5049 19.7446 15.1098 20.6984 14.4065 21.4017C13.7033 22.1049 12.7494 22.5 11.7549 22.5Z" fill="#97ADDC"/>
</svg>
