<svg width="24" height="24" viewBox="0 0 24 24" fill="none" xmlns="http://www.w3.org/2000/svg">
<path fill-rule="evenodd" clip-rule="evenodd" d="M11.75 7.99999C9.67893 7.99999 8 9.67892 8 11.75C8 13.8211 9.67893 15.5 11.75 15.5C13.8211 15.5 15.5 13.8211 15.5 11.75C15.5 9.67892 13.8211 7.99999 11.75 7.99999ZM9.5 11.75C9.5 10.5073 10.5074 9.49999 11.75 9.49999C12.9926 9.49999 14 10.5073 14 11.75C14 12.9926 12.9926 14 11.75 14C10.5074 14 9.5 12.9926 9.5 11.75Z" fill="#97ADDC"/>
<path fill-rule="evenodd" clip-rule="evenodd" d="M13.1945 1.76027C12.309 1.2137 11.1909 1.2137 10.3055 1.76027L3.30551 6.08126C2.49404 6.58216 2 7.46771 2 8.42133V15.0786C2 16.0323 2.49404 16.9178 3.30551 17.4187L10.3055 21.7397C11.191 22.2863 12.3091 22.2863 13.1945 21.7397L20.1945 17.4187C21.006 16.9178 21.5 16.0323 21.5 15.0786V8.42133C21.5 7.46771 21.006 6.58216 20.1945 6.08126L13.1945 1.76027ZM11.0934 3.03667C11.4959 2.78823 12.0041 2.78823 12.4066 3.03667L19.4066 7.35766C19.7754 7.58534 20 7.98787 20 8.42133V15.0786C20 15.5121 19.7754 15.9146 19.4066 16.1423L12.4066 20.4633C12.0041 20.7117 11.4959 20.7117 11.0934 20.4633L4.09341 16.1423C3.72456 15.9146 3.5 15.5121 3.5 15.0786V8.42133C3.5 7.98787 3.72456 7.58535 4.09341 7.35766L11.0934 3.03667Z" fill="#97ADDC"/>
</svg>
