<svg width="24" height="24" viewBox="0 0 24 24" fill="none" xmlns="http://www.w3.org/2000/svg">
<path fill-rule="evenodd" clip-rule="evenodd" d="M12 9.25C10.4812 9.25 9.24995 10.4812 9.24995 12C9.24995 13.5188 10.4812 14.75 12 14.75C13.5187 14.75 14.75 13.5188 14.75 12C14.75 10.4812 13.5187 9.25 12 9.25ZM10.75 12C10.75 11.3096 11.3096 10.75 12 10.75C12.6903 10.75 13.25 11.3096 13.25 12C13.25 12.6904 12.6903 13.25 12 13.25C11.3096 13.25 10.75 12.6904 10.75 12Z" fill="#97ADDC"/>
<path fill-rule="evenodd" clip-rule="evenodd" d="M12 5.25C9.81246 5.25 7.81458 6.10562 6.18627 7.14851C4.55432 8.19373 3.24362 9.4589 2.41518 10.3558C1.54911 11.2935 1.54911 12.7065 2.41518 13.6442C3.24362 14.5411 4.55432 15.8063 6.18627 16.8515C7.81458 17.8944 9.81246 18.75 12 18.75C14.1874 18.75 16.1853 17.8944 17.8136 16.8515C19.4456 15.8063 20.7563 14.5411 21.5847 13.6442C22.4508 12.7065 22.4508 11.2935 21.5847 10.3558C20.7563 9.4589 19.4456 8.19373 17.8136 7.1485C16.1853 6.10562 14.1874 5.25 12 5.25ZM3.51707 11.3736C4.29523 10.5311 5.50846 9.36391 6.99528 8.41164C8.48575 7.45703 10.2015 6.75 12 6.75C13.7984 6.75 15.5142 7.45703 17.0046 8.41164C18.4915 9.36391 19.7047 10.5311 20.4828 11.3736C20.8181 11.7365 20.8181 12.2635 20.4828 12.6264C19.7047 13.4689 18.4915 14.6361 17.0046 15.5884C15.5142 16.543 13.7984 17.25 12 17.25C10.2015 17.25 8.48575 16.543 6.99528 15.5884C5.50846 14.6361 4.29523 13.4689 3.51707 12.6264C3.18181 12.2635 3.18181 11.7365 3.51707 11.3736Z" fill="#97ADDC"/>
</svg>
