<svg width="38" height="38" viewBox="0 0 38 38" fill="none" xmlns="http://www.w3.org/2000/svg">
<path d="M27.9616 34.8331H10.0383C8.30402 34.8331 6.64075 34.1442 5.41442 32.9179C4.18809 31.6915 3.49915 30.0283 3.49915 28.294V10.339C3.49915 8.60468 4.18809 6.94141 5.41442 5.71508C6.64075 4.48875 8.30402 3.7998 10.0383 3.7998H27.9616C29.6959 3.7998 31.3592 4.48875 32.5855 5.71508C33.8119 6.94141 34.5008 8.60468 34.5008 10.339V28.2623C34.505 29.1237 34.3389 29.9774 34.0122 30.7745C33.6854 31.5715 33.2044 32.2961 32.5968 32.9067C31.9891 33.5173 31.2668 34.0018 30.4714 34.3324C29.676 34.663 28.8231 34.8332 27.9616 34.8331ZM10.0383 6.1748C8.93391 6.1748 7.87473 6.61353 7.0938 7.39446C6.31287 8.17539 5.87415 9.23457 5.87415 10.339V28.2623C5.87415 29.3667 6.31287 30.4259 7.0938 31.2068C7.87473 31.9878 8.93391 32.4265 10.0383 32.4265H27.9616C29.0661 32.4265 30.1252 31.9878 30.9062 31.2068C31.6871 30.4259 32.1258 29.3667 32.1258 28.2623V10.339C32.1258 9.79213 32.0181 9.25063 31.8088 8.74541C31.5996 8.24019 31.2928 7.78114 30.9062 7.39446C30.5195 7.00778 30.0604 6.70105 29.5552 6.49178C29.05 6.28251 28.5085 6.1748 27.9616 6.1748H10.0383Z" fill="#97ADDC"/>
<path d="M28.7058 19.2213C28.3921 19.2172 28.0925 19.0908 27.8707 18.869C27.6488 18.6471 27.5224 18.3475 27.5183 18.0338C27.4712 17.4762 27.2165 16.9566 26.8045 16.578C26.3925 16.1993 25.8533 15.9892 25.2937 15.9892C24.7342 15.9892 24.195 16.1993 23.783 16.578C23.371 16.9566 23.1162 17.4762 23.0692 18.0338C23.0692 18.3488 22.944 18.6508 22.7213 18.8735C22.4986 19.0962 22.1966 19.2213 21.8817 19.2213C21.5667 19.2213 21.2647 19.0962 21.042 18.8735C20.8193 18.6508 20.6942 18.3488 20.6942 18.0338C20.763 16.8606 21.2776 15.758 22.1326 14.9517C22.9877 14.1454 24.1185 13.6963 25.2937 13.6963C26.469 13.6963 27.5998 14.1454 28.4548 14.9517C29.3099 15.758 29.8245 16.8606 29.8933 18.0338C29.8892 18.3475 29.7628 18.6471 29.541 18.869C29.3192 19.0908 29.0195 19.2172 28.7058 19.2213Z" fill="#97ADDC"/>
<path d="M16.3716 19.2215C16.058 19.2174 15.7583 19.091 15.5365 18.8692C15.3147 18.6474 15.1882 18.3477 15.1841 18.034C15.1841 17.4462 14.9506 16.8823 14.5349 16.4666C14.1192 16.0509 13.5554 15.8174 12.9675 15.8174C12.3796 15.8174 11.8157 16.0509 11.4 16.4666C10.9843 16.8823 10.7508 17.4462 10.7508 18.034C10.7508 18.349 10.6257 18.651 10.403 18.8737C10.1803 19.0964 9.87824 19.2215 9.56329 19.2215C9.24835 19.2215 8.9463 19.0964 8.7236 18.8737C8.5009 18.651 8.37579 18.349 8.37579 18.034C8.37579 16.8163 8.85956 15.6484 9.72066 14.7873C10.5818 13.9261 11.7497 13.4424 12.9675 13.4424C14.1852 13.4424 15.3532 13.9261 16.2143 14.7873C17.0754 15.6484 17.5591 16.8163 17.5591 18.034C17.5591 18.349 17.434 18.651 17.2113 18.8737C16.9886 19.0964 16.6866 19.2215 16.3716 19.2215Z" fill="#97ADDC"/>
<path d="M25.3333 27.8984H12.9675C12.6525 27.8984 12.3505 27.7733 12.1278 27.5506C11.9051 27.3279 11.78 27.0259 11.78 26.7109C11.78 26.396 11.9051 26.0939 12.1278 25.8712C12.3505 25.6485 12.6525 25.5234 12.9675 25.5234H25.3333C25.6482 25.5234 25.9503 25.6485 26.173 25.8712C26.3957 26.0939 26.5208 26.396 26.5208 26.7109C26.5208 27.0259 26.3957 27.3279 26.173 27.5506C25.9503 27.7733 25.6482 27.8984 25.3333 27.8984Z" fill="#97ADDC"/>
</svg>
