<svg width="24" height="24" viewBox="0 0 24 24" fill="none" xmlns="http://www.w3.org/2000/svg">
<path fill-rule="evenodd" clip-rule="evenodd" d="M8.25 10C8.25 7.92893 9.92893 6.25 12 6.25C14.0711 6.25 15.75 7.92893 15.75 10C15.75 12.0711 14.0711 13.75 12 13.75C9.92893 13.75 8.25 12.0711 8.25 10ZM12 7.75C10.7574 7.75 9.75 8.75736 9.75 10C9.75 11.2426 10.7574 12.25 12 12.25C13.2426 12.25 14.25 11.2426 14.25 10C14.25 8.75736 13.2426 7.75 12 7.75Z" fill="#97ADDC"/>
<path fill-rule="evenodd" clip-rule="evenodd" d="M2.25 12C2.25 6.61522 6.61522 2.25 12 2.25C17.3848 2.25 21.75 6.61522 21.75 12C21.75 17.3848 17.3848 21.75 12 21.75C6.61522 21.75 2.25 17.3848 2.25 12ZM12 3.75C7.44365 3.75 3.75 7.44365 3.75 12C3.75 14.4303 4.80088 16.6152 6.47304 18.1251C7.06268 17.284 7.83782 16.5868 8.74095 16.0889C9.78266 15.5146 10.9577 15.2257 12.1469 15.2516C13.3362 15.2775 14.4975 15.6172 15.5133 16.2364C16.3098 16.7219 16.9946 17.3657 17.527 18.1251C19.1991 16.6152 20.25 14.4303 20.25 12C20.25 7.44365 16.5563 3.75 12 3.75ZM16.3264 19.026C15.9085 18.418 15.3659 17.9033 14.7325 17.5172C13.9425 17.0356 13.0393 16.7714 12.1143 16.7512C11.1893 16.7311 10.2754 16.9558 9.46518 17.4025C8.74855 17.7976 8.13554 18.354 7.67362 19.026C8.93146 19.8021 10.4134 20.25 12 20.25C13.5866 20.25 15.0685 19.8021 16.3264 19.026Z" fill="#97ADDC"/>
</svg>
