<svg width="24" height="24" viewBox="0 0 24 24" fill="none" xmlns="http://www.w3.org/2000/svg">
<path fill-rule="evenodd" clip-rule="evenodd" d="M12 2.25C8.82432 2.25 6.24996 4.82436 6.24996 8C6.24996 11.1756 8.82432 13.75 12 13.75C15.1756 13.75 17.75 11.1756 17.75 8C17.75 4.82436 15.1756 2.25 12 2.25ZM7.74996 8C7.74996 5.65279 9.65275 3.75 12 3.75C14.3472 3.75 16.25 5.65279 16.25 8C16.25 10.3472 14.3472 12.25 12 12.25C9.65275 12.25 7.74996 10.3472 7.74996 8Z" fill="#97ADDC"/>
<path d="M12.023 15.25C10.1729 15.2452 8.3689 15.8268 6.8701 16.9115C5.3713 17.9961 4.25488 19.5279 3.68121 21.2869C3.55277 21.6807 3.76789 22.104 4.16169 22.2324C4.55549 22.3609 4.97884 22.1458 5.10728 21.752C5.5826 20.2946 6.50764 19.0254 7.7495 18.1266C8.99136 17.2279 10.4861 16.746 12.0191 16.75C13.552 16.7541 15.0442 17.2439 16.2813 18.1492C17.5184 19.0544 18.4367 20.3285 18.9044 21.7884C19.0307 22.1828 19.4529 22.4002 19.8474 22.2738C20.2419 22.1475 20.4592 21.7252 20.3329 21.3308C19.7685 19.5689 18.6602 18.0312 17.1671 16.9386C15.6741 15.8461 13.8731 15.2549 12.023 15.25Z" fill="#97ADDC"/>
</svg>
