<svg width="24" height="24" viewBox="0 0 24 24" fill="none" xmlns="http://www.w3.org/2000/svg">
<path d="M16.2167 4.40849C15.5842 4.24088 14.9239 4.20575 14.2772 4.3053C13.8679 4.36832 13.5871 4.75129 13.6501 5.16068C13.7131 5.57007 14.0961 5.85086 14.5055 5.78784C14.9479 5.71972 15.3997 5.74376 15.8325 5.85844C16.2652 5.97312 16.6696 6.17597 17.0203 6.45428C17.371 6.73258 17.6604 7.08034 17.8703 7.47574C18.0803 7.87113 18.2063 8.30565 18.2405 8.75204C18.2746 9.19842 18.2162 9.64705 18.0688 10.0698C17.9215 10.4925 17.6884 10.8803 17.3841 11.2087C17.0799 11.5371 16.711 11.7991 16.3008 11.9783C15.8905 12.1575 15.4476 12.25 15 12.25C14.5857 12.25 14.25 12.5858 14.25 13C14.25 13.4142 14.5857 13.75 15 13.75C15.6543 13.75 16.3015 13.6148 16.9012 13.3529C17.5008 13.091 18.0398 12.7081 18.4845 12.2281C18.9292 11.7481 19.2699 11.1814 19.4852 10.5635C19.7006 9.94569 19.786 9.29 19.7361 8.63759C19.6862 7.98518 19.502 7.35012 19.1951 6.77223C18.8883 6.19434 18.4653 5.68608 17.9528 5.27933C17.4402 4.87258 16.8492 4.5761 16.2167 4.40849Z" fill="#97ADDC"/>
<path fill-rule="evenodd" clip-rule="evenodd" d="M9 4.25C6.37665 4.25 4.25 6.37665 4.25 9C4.25 11.6234 6.37665 13.75 9 13.75C11.6234 13.75 13.75 11.6234 13.75 9C13.75 6.37665 11.6234 4.25 9 4.25ZM5.75 9C5.75 7.20507 7.20507 5.75 9 5.75C10.7949 5.75 12.25 7.20507 12.25 9C12.25 10.7949 10.7949 12.25 9 12.25C7.20507 12.25 5.75 10.7949 5.75 9Z" fill="#97ADDC"/>
<path d="M6.79957 15.6877C7.49719 15.3987 8.2449 15.25 9 15.25C9.7551 15.25 10.5028 15.3987 11.2004 15.6877C11.8981 15.9767 12.5319 16.4002 13.0659 16.9341C13.5998 17.4681 14.0233 18.1019 14.3123 18.7996C14.6013 19.4972 14.75 20.2449 14.75 21C14.75 21.4142 14.4142 21.75 14 21.75C13.5858 21.75 13.25 21.4142 13.25 21C13.25 20.4419 13.1401 19.8892 12.9265 19.3736C12.7129 18.858 12.3999 18.3894 12.0052 17.9948C11.6106 17.6001 11.142 17.2871 10.6264 17.0735C10.1108 16.8599 9.55812 16.75 9 16.75C8.44188 16.75 7.88923 16.8599 7.3736 17.0735C6.85796 17.2871 6.38944 17.6001 5.9948 17.9948C5.60015 18.3894 5.28709 18.858 5.07351 19.3736C4.85993 19.8892 4.75 20.4419 4.75 21C4.75 21.4142 4.41421 21.75 4 21.75C3.58579 21.75 3.25 21.4142 3.25 21C3.25 20.2449 3.39873 19.4972 3.68769 18.7996C3.97666 18.1019 4.4002 17.4681 4.93414 16.9341C5.46807 16.4002 6.10195 15.9767 6.79957 15.6877Z" fill="#97ADDC"/>
<path d="M15 15.25C14.5858 15.25 14.25 15.5858 14.25 16C14.25 16.4142 14.5858 16.75 15 16.75C15.5581 16.75 16.1108 16.8599 16.6264 17.0735C17.142 17.2871 17.6106 17.6001 18.0052 17.9948C18.3999 18.3894 18.7129 18.858 18.9265 19.3736C19.1401 19.8892 19.25 20.4419 19.25 21C19.25 21.4142 19.5858 21.75 20 21.75C20.4142 21.75 20.75 21.4142 20.75 21C20.75 20.2449 20.6013 19.4972 20.3123 18.7996C20.0233 18.1019 19.5998 17.4681 19.0659 16.9341C18.5319 16.4002 17.8981 15.9767 17.2004 15.6877C16.5028 15.3987 15.7551 15.25 15 15.25Z" fill="#97ADDC"/>
</svg>
