<svg width="24" height="25" viewBox="0 0 24 25" fill="none" xmlns="http://www.w3.org/2000/svg">
<path d="M12.5 9.25C12.5 8.83579 12.1642 8.5 11.75 8.5C11.3357 8.5 11 8.83579 11 9.25V14.25C11 14.6642 11.3357 15 11.75 15C12.1642 15 12.5 14.6642 12.5 14.25V9.25Z" fill="#97ADDC"/>
<path d="M12.5 17C12.5 17.4142 12.1642 17.75 11.75 17.75C11.3357 17.75 11 17.4142 11 17C11 16.5858 11.3357 16.25 11.75 16.25C12.1642 16.25 12.5 16.5858 12.5 17Z" fill="#97ADDC"/>
<path fill-rule="evenodd" clip-rule="evenodd" d="M14.3113 4.11161C13.3504 2.29613 10.6495 2.29613 9.68862 4.11161L2.53403 17.6294C1.62348 19.3498 2.98331 21.25 4.84537 21.25H19.1545C21.0166 21.25 22.3764 19.3498 21.4659 17.6294L14.3113 4.11161ZM11.0144 4.8133C11.4119 4.06223 12.588 4.06223 12.9855 4.8133L20.1401 18.3311C20.455 18.926 20.0326 19.75 19.1545 19.75H4.84537C3.96728 19.75 3.54491 18.926 3.85979 18.3311L11.0144 4.8133Z" fill="#97ADDC"/>
</svg>
