<svg width="24" height="24" viewBox="0 0 24 24" fill="none" xmlns="http://www.w3.org/2000/svg">
<path d="M11.8 1C5.836 1 1 5.836 1 11.8C1 17.764 5.836 22.6 11.8 22.6C17.764 22.6 22.6 17.764 22.6 11.8C22.6 5.836 17.764 1 11.8 1ZM20.8 8.776C20.4712 9.8512 19.7104 10.744 18.7 11.236C18.16 9.208 16.7104 7.5472 14.776 6.736C14.932 6.2032 15.268 5.74 15.724 5.428C15.208 5.092 14.524 4.924 14.116 5.512C13.48 6.34 14.116 7.444 14.368 7.912V8.08C13.702 7.6756 13.18 7.072 12.88 6.352C11.7208 6.316 10.5736 6.6016 9.568 7.18C9.4636 6.502 9.5296 5.8096 9.76 5.164C10.6396 5.248 11.5036 4.888 12.064 4.204C12.616 3.58 11.908 2.788 11.356 2.308H11.788C13.42 2.296 15.0304 2.71 16.456 3.508C18.088 4.714 19.0888 6.592 19.18 8.62C19.468 8.62 20.02 7.96 20.272 7.516C20.4784 7.924 20.656 8.344 20.8 8.776ZM11.8 21.208C9.34 18.712 12.1 16.708 10.6 14.92C9.496 13.9 7.852 14.608 6.868 13.444C6.5296 11.6764 7.1884 9.8656 8.584 8.728C9.208 8.2 13.384 7.528 15.088 8.992C16.084 9.85 16.786 11.0008 17.092 12.28C17.644 12.322 18.1936 12.2008 18.676 11.932C19.168 15.508 14.896 20.02 11.8 21.208ZM7.18 3.508C8.1232 3.148 9.1912 3.4744 9.772 4.3C9.268 4.756 8.644 5.056 7.972 5.164C7.996 4.8112 8.074 4.4632 8.2 4.132L7.18 3.508Z" fill="#97ADDC"/>
</svg>
