<svg width="98" height="98" viewBox="0 0 98 98" fill="none" xmlns="http://www.w3.org/2000/svg">
<path d="M25.7952 11.4296L33.9657 51.5092L51.3279 41.073L61.2005 35.1387L69.0305 41.073L41.7957 57.1542V73.0853C46.1512 75.121 49.9235 76.4166 52.3492 76.3472V91.0242C50.3066 91.3065 45.1319 91.5323 40.7744 90.1775V72.5996C38.6005 71.5489 36.3011 70.3325 33.9657 69.0235V87.0727L23.4122 78.8875V62.6911C19.0778 59.9404 15.1166 57.2591 12.1778 55.1784C10.5437 36.2112 20.5752 18.1095 25.7952 11.4296Z" fill="url(#paint0_linear_857_8238)"/>
<path d="M52.3492 61.388L76.8605 47.2754C78.2223 48.8748 80.8096 53.0898 80.2649 57.1542C80.6053 61.1106 82.1032 69.0235 85.3714 69.0235V84.2502L76.8605 90.1775V73.0853C75.7257 72.5732 72.8434 69.9119 70.3923 63.3637L59.1579 69.8555C61.5409 72.4898 66.8517 77.8149 69.0305 78.0407V93C68.3496 91.1757 65.4219 87.8878 59.1579 89.3307V69.8555C58.477 67.9738 56.162 63.646 52.3492 61.388Z" fill="url(#paint1_linear_857_8238)"/>
<path d="M39.5432 26.3651C42.0266 19.4396 44.7358 13.0756 53.089 5.21416L50.6477 41.5264L39.5432 26.3651Z" fill="url(#paint2_linear_857_8238)"/>
<defs>
<linearGradient id="paint0_linear_857_8238" x1="12" y1="52.2148" x2="85.3714" y2="52.2148" gradientUnits="userSpaceOnUse">
<stop stop-color="#4284DB"/>
<stop offset="1" stop-color="#29EAC4"/>
</linearGradient>
<linearGradient id="paint1_linear_857_8238" x1="12" y1="52.2148" x2="85.3714" y2="52.2148" gradientUnits="userSpaceOnUse">
<stop stop-color="#4284DB"/>
<stop offset="1" stop-color="#29EAC4"/>
</linearGradient>
<linearGradient id="paint2_linear_857_8238" x1="39.5432" y1="23.3703" x2="53.089" y2="23.3703" gradientUnits="userSpaceOnUse">
<stop stop-color="#4284DB"/>
<stop offset="1" stop-color="#29EAC4"/>
</linearGradient>
</defs>
</svg>
