<svg width="39" height="46" viewBox="0 0 39 46" fill="none" xmlns="http://www.w3.org/2000/svg">
    <path d="M7.22873 3.2569L11.5101 24.2587L20.6079 18.7901L25.7812 15.6805L29.8841 18.7901L15.613 27.2167V35.5646C17.8953 36.6313 19.872 37.3102 21.1431 37.2739V44.9647C20.0727 45.1126 17.3612 45.2309 15.0778 44.521V35.3101C13.9387 34.7596 12.7339 34.1221 11.5101 33.4363V42.8941L5.98 38.605V30.118C3.70881 28.6767 1.63313 27.2717 0.0931692 26.1814C-0.763098 16.2425 4.49343 6.75719 7.22873 3.2569Z" fill="url(#paint0_linear_152_4015)"/>
    <path d="M21.1431 29.4352L33.9871 22.0402C34.7006 22.8783 36.0564 25.0869 35.771 27.2167C35.9493 29.2899 36.7343 33.4363 38.4468 33.4363V41.4151L33.9871 44.521V35.5646C33.3924 35.2963 31.8821 33.9018 30.5977 30.4705L24.7108 33.8722C25.9596 35.2526 28.7424 38.043 29.8841 38.1613V46C29.5273 45.044 27.9932 43.3212 24.7108 44.0773V33.8722C24.3541 32.8862 23.141 30.6184 21.1431 29.4352Z" fill="url(#paint1_linear_152_4015)"/>
    <path d="M14.4327 11.0832C15.734 7.45416 17.1536 4.1194 21.5307 0L20.2515 19.0277L14.4327 11.0832Z" fill="url(#paint2_linear_152_4015)"/>
    <defs>
        <linearGradient id="paint0_linear_152_4015" x1="0" y1="24.6284" x2="38.4468" y2="24.6284" gradientUnits="userSpaceOnUse">
            <stop stop-color="#4284DB"/>
            <stop offset="1" stop-color="#29EAC4"/>
        </linearGradient>
        <linearGradient id="paint1_linear_152_4015" x1="0" y1="24.6284" x2="38.4468" y2="24.6284" gradientUnits="userSpaceOnUse">
            <stop stop-color="#4284DB"/>
            <stop offset="1" stop-color="#29EAC4"/>
        </linearGradient>
        <linearGradient id="paint2_linear_152_4015" x1="14.4327" y1="9.51386" x2="21.5307" y2="9.51386" gradientUnits="userSpaceOnUse">
            <stop stop-color="#4284DB"/>
            <stop offset="1" stop-color="#29EAC4"/>
        </linearGradient>
    </defs>
</svg>