<svg width="18" height="12" viewBox="0 0 18 12" fill="none" xmlns="http://www.w3.org/2000/svg">
<g clip-path="url(#clip0_32_2934)">
<mask id="mask0_32_2934" style="mask-type:alpha" maskUnits="userSpaceOnUse" x="0" y="0" width="18" height="12">
<path d="M16.2857 0H1.71429C0.767512 0 0 0.716344 0 1.6V10.4C0 11.2837 0.767512 12 1.71429 12H16.2857C17.2325 12 18 11.2837 18 10.4V1.6C18 0.716344 17.2325 0 16.2857 0Z" fill="white"/>
</mask>
<g mask="url(#mask0_32_2934)">
<path d="M16.2857 0H1.71429C0.767512 0 0 0.716344 0 1.6V10.4C0 11.2837 0.767512 12 1.71429 12H16.2857C17.2325 12 18 11.2837 18 10.4V1.6C18 0.716344 17.2325 0 16.2857 0Z" fill="#0034A9"/>
<path fill-rule="evenodd" clip-rule="evenodd" d="M0 8H18V12H0V8Z" fill="#D7280F"/>
<path fill-rule="evenodd" clip-rule="evenodd" d="M0 0H18V4H0V0Z" fill="white"/>
<path d="M16.2857 0.400024H1.7143C1.00422 0.400024 0.428589 0.937283 0.428589 1.60002V10.4C0.428589 11.0628 1.00422 11.6 1.7143 11.6H16.2857C16.9958 11.6 17.5714 11.0628 17.5714 10.4V1.60002C17.5714 0.937283 16.9958 0.400024 16.2857 0.400024Z" stroke="black" stroke-opacity="0.1"/>
</g>
</g>
<defs>
<clipPath id="clip0_32_2934">
<rect width="18" height="12" fill="white"/>
</clipPath>
</defs>
</svg>
