<svg width="18" height="12" viewBox="0 0 18 12" fill="none" xmlns="http://www.w3.org/2000/svg">
<g clip-path="url(#clip0_32_2951)">
<mask id="mask0_32_2951" style="mask-type:alpha" maskUnits="userSpaceOnUse" x="0" y="0" width="18" height="12">
<path d="M16.2857 0H1.71429C0.767512 0 0 0.716344 0 1.6V10.4C0 11.2837 0.767512 12 1.71429 12H16.2857C17.2325 12 18 11.2837 18 10.4V1.6C18 0.716344 17.2325 0 16.2857 0Z" fill="white"/>
</mask>
<g mask="url(#mask0_32_2951)">
<path d="M16.2857 0H1.71429C0.767512 0 0 0.716344 0 1.6V10.4C0 11.2837 0.767512 12 1.71429 12H16.2857C17.2325 12 18 11.2837 18 10.4V1.6C18 0.716344 17.2325 0 16.2857 0Z" fill="white"/>
<path fill-rule="evenodd" clip-rule="evenodd" d="M0 0H7.71429V5.6H0V0Z" fill="#444379"/>
<path fill-rule="evenodd" clip-rule="evenodd" d="M0.857117 0.799988V1.59999H1.71426V0.799988H0.857117ZM2.5714 0.799988V1.59999H3.42855V0.799988H2.5714ZM4.28569 0.799988V1.59999H5.14283V0.799988H4.28569ZM5.99997 0.799988V1.59999H6.85712V0.799988H5.99997ZM5.14283 1.59999V2.39999H5.99997V1.59999H5.14283ZM3.42855 1.59999V2.39999H4.28569V1.59999H3.42855ZM1.71426 1.59999V2.39999H2.5714V1.59999H1.71426ZM0.857117 2.39999V3.19999H1.71426V2.39999H0.857117ZM2.5714 2.39999V3.19999H3.42855V2.39999H2.5714ZM4.28569 2.39999V3.19999H5.14283V2.39999H4.28569ZM5.99997 2.39999V3.19999H6.85712V2.39999H5.99997ZM0.857117 3.99999V4.79999H1.71426V3.99999H0.857117ZM2.5714 3.99999V4.79999H3.42855V3.99999H2.5714ZM4.28569 3.99999V4.79999H5.14283V3.99999H4.28569ZM5.99997 3.99999V4.79999H6.85712V3.99999H5.99997ZM5.14283 3.19999V3.99999H5.99997V3.19999H5.14283ZM3.42855 3.19999V3.99999H4.28569V3.19999H3.42855ZM1.71426 3.19999V3.99999H2.5714V3.19999H1.71426Z" fill="#A7B6E7"/>
<path fill-rule="evenodd" clip-rule="evenodd" d="M7.71429 0V0.8H18V0H7.71429ZM7.71429 1.6V2.4H18V1.6H7.71429ZM7.71429 3.2V4H18V3.2H7.71429ZM7.71429 4.8V5.6H18V4.8H7.71429ZM0 6.4V7.2H18V6.4H0ZM0 8V8.8H18V8H0ZM0 9.6V10.4H18V9.6H0ZM0 11.2V12H18V11.2H0Z" fill="#ED4C49"/>
<path d="M16.2857 0.400024H1.7143C1.00422 0.400024 0.428589 0.937283 0.428589 1.60002V10.4C0.428589 11.0628 1.00422 11.6 1.7143 11.6H16.2857C16.9958 11.6 17.5714 11.0628 17.5714 10.4V1.60002C17.5714 0.937283 16.9958 0.400024 16.2857 0.400024Z" stroke="black" stroke-opacity="0.1"/>
</g>
</g>
<defs>
<clipPath id="clip0_32_2951">
<rect width="18" height="12" fill="white"/>
</clipPath>
</defs>
</svg>
